<svg width="364" height="83" viewBox="0 0 364 83" fill="none" xmlns="http://www.w3.org/2000/svg">
<g clip-path="url(#clip0)">
<path fill-rule="evenodd" clip-rule="evenodd" d="M113.667 59.8637V73.4911H119.06V59.9302C119.06 56.2681 121.058 53.8045 124.409 53.8045C128.138 53.8045 129.603 56.3569 129.603 59.7971V73.4911H135.018V58.5098C135.018 53.0055 132.333 48.6776 126.162 48.6776C122.456 48.6776 120.081 50.0536 117.729 52.6504C116.352 50.2312 113.933 48.6776 110.249 48.6776C108.318 48.6776 105.322 49.3878 102.991 52.4951V49.2324H97.709V73.4911H103.124V59.9746C103.124 56.3125 105.122 53.8045 108.473 53.8045C112.202 53.8045 113.667 56.4235 113.667 59.8637ZM145.773 62.8155V49.2324H140.357V64.1472C140.357 69.6514 143.376 74.0016 149.457 74.0016C151.366 74.0016 154.54 73.3579 156.87 70.2285V73.4911H162.152V49.2324H156.737V62.7267C156.737 66.3888 154.562 68.8746 151.122 68.8746C147.393 68.8746 145.773 66.2556 145.773 62.8155ZM175.948 73.9129C181.985 73.9129 184.803 70.0954 184.803 66.3445C184.803 62.8821 182.362 59.9968 177.923 59.0425L174.594 58.3323C173.24 58.0437 172.152 57.2447 172.152 55.8243C172.152 54.1819 173.773 53.0721 175.482 53.0721C178.345 53.0721 179.521 54.8921 179.876 56.4679L184.448 55.1806C184.027 52.8502 181.852 48.6998 175.482 48.6998C170.532 48.6998 166.915 52.2731 166.915 56.2903C166.915 59.4642 168.912 62.2163 173.329 63.2595L176.436 63.9919C178.478 64.4802 179.321 65.3457 179.321 66.6552C179.321 68.342 178.101 69.4961 175.859 69.4961C173.085 69.4961 171.442 67.6984 170.998 65.6343L166.36 66.855C166.67 69.5627 169.356 73.9129 175.948 73.9129ZM188.323 41.3533C188.323 39.378 189.921 37.7578 191.874 37.7578C193.849 37.7578 195.447 39.378 195.447 41.3533C195.447 43.3287 193.849 44.9045 191.874 44.9045C189.921 44.9045 188.323 43.3287 188.323 41.3533ZM189.187 73.4911V49.2324H194.603V73.4911H189.187ZM203.672 73.4911L209.776 65.035L215.901 73.4911H222.116L212.927 61.1287L221.827 49.2324H215.724L209.842 57.2668L204.027 49.2324H197.835L206.713 61.2175L197.502 73.4911H203.672ZM240.993 59.8637V73.4911H246.386V59.9302C246.386 56.2681 248.383 53.8045 251.735 53.8045C255.463 53.8045 256.928 56.3569 256.928 59.7971V73.4911H262.344V58.5098C262.344 53.0055 259.658 48.6776 253.488 48.6776C249.782 48.6776 247.407 50.0536 245.054 52.6504C243.678 50.2312 241.259 48.6776 237.575 48.6776C235.644 48.6776 232.647 49.3878 230.317 52.4951V49.2324H225.035V73.4911H230.45V59.9746C230.45 56.3125 232.448 53.8045 235.799 53.8045C239.528 53.8045 240.993 56.4235 240.993 59.8637ZM266.308 61.3284C266.308 67.8536 271.235 73.8683 278.249 73.8683C280.179 73.8683 284.308 72.914 286.305 69.8067V73.491H291.654V49.2323H286.305V52.7613C284.308 49.765 280.512 48.744 278.382 48.744C270.791 48.744 266.308 55.2027 266.308 61.3284ZM286.327 61.3284C286.327 65.4788 283.442 68.9634 279.047 68.9634C274.675 68.9634 271.767 65.501 271.767 61.3284C271.767 57.1115 274.653 53.6491 279.047 53.6491C283.442 53.6491 286.327 57.1115 286.327 61.3284ZM311.242 54.093V49.2323H305.072V41.7084H299.678V49.2323H294.973V54.093H299.678V65.9671C299.678 71.8708 302.364 73.713 307.136 73.713C307.802 73.713 309.533 73.6686 311.02 73.2247V68.6304C309.977 68.7636 309.311 68.808 308.823 68.808C306.115 68.808 305.072 67.7648 305.072 65.6785V54.093H311.242ZM326.125 73.9127C332.739 73.9127 336.49 69.6513 337.577 65.967L332.628 64.369C331.918 66.2334 330.386 68.9855 326.236 68.9855C322.108 68.9855 319.045 65.7451 319.045 61.2174C319.045 56.6231 322.241 53.6268 326.192 53.6268C330.209 53.6268 331.984 56.268 332.539 58.1545L337.444 56.5565C336.423 52.4505 332.229 48.7218 326.214 48.7218C318.978 48.7218 313.496 54.3814 313.496 61.3062C313.496 68.4528 318.978 73.9127 326.125 73.9127ZM357.83 59.908V73.4911H363.246V58.5541C363.246 53.0276 360.316 48.7219 354.146 48.7219C352.237 48.7219 349.197 49.3433 346.866 52.2952V36.4705H341.451V73.4911H346.866V59.9746C346.866 56.3124 349.041 53.8488 352.481 53.8488C356.21 53.8488 357.83 56.4456 357.83 59.908Z" fill="#131313"/>
<path fill-rule="evenodd" clip-rule="evenodd" d="M41.3636 82.7273C64.2081 82.7273 82.7273 64.2081 82.7273 41.3636C82.7273 18.5191 64.2081 0 41.3636 0C18.5191 0 0 18.5191 0 41.3636C0 64.2081 18.5191 82.7273 41.3636 82.7273Z" fill="url(#paint0_linear)"/>
<g clip-path="url(#clip1)">
<path fill-rule="evenodd" clip-rule="evenodd" d="M56.1602 21.9268C56.1602 21.9268 46.3221 29.5229 41.403 33.321C41.3606 33.3537 41.2759 33.4191 41.2759 33.4191L26.2523 22.0267C25.4242 21.3837 24.4603 21.0949 23.5179 21.0948C21.3284 21.0945 19.2531 22.653 19.2531 24.9507V33.5903L19.25 59.2733C19.25 61.5707 21.3255 63.1293 23.5148 63.1293C24.4574 63.1293 25.421 62.8404 26.2492 62.1973L41.2759 50.7051C48.7529 56.5106 56.1571 62.1973 56.1571 62.1973C56.9852 62.8403 57.9492 63.1293 58.8915 63.1293C61.0811 63.1293 63.3018 61.5709 63.3018 59.2733V33.5903V24.7762C63.3018 22.4787 61.0839 20.9949 58.8946 20.9949C57.952 20.9949 56.9885 21.2837 56.1602 21.9268Z" fill="white" fill-opacity="0.7"/>
<path fill-rule="evenodd" clip-rule="evenodd" d="M30.25 42.079L41.2755 50.7051L52.2306 42.0766L41.2755 33.4192L30.25 42.079Z" fill="white" fill-opacity="0.6"/>
<path fill-rule="evenodd" clip-rule="evenodd" d="M19.2559 33.5596V50.5982L30.2509 42.0788L19.2559 33.5596Z" fill="white" fill-opacity="0.6"/>
<path fill-rule="evenodd" clip-rule="evenodd" d="M52.2305 42.0766L63.3013 50.7051V33.4192L52.2305 42.0766Z" fill="white" fill-opacity="0.6"/>
<path fill-rule="evenodd" clip-rule="evenodd" d="M55.9613 22.0753L41.2773 33.4192L52.2324 42.0766L63.3033 33.4192V24.7763C63.3033 21.492 59.1078 19.3744 55.9613 22.0753Z" fill="white"/>
<path fill-rule="evenodd" clip-rule="evenodd" d="M26.2668 21.9591C23.5109 19.8237 19.2578 21.5969 19.2578 24.8811V33.5597L30.2497 42.0789L41.2753 33.4191L26.2668 21.9591Z" fill="white"/>
</g>
<path d="M101.411 10.9358H99.7833V26.4819H108.777V24.9531H101.411V10.9358ZM112.589 25.7672L109.85 31.7037H111.517L118.784 15.8796H117.116L113.443 24.0795L109.552 15.8796H107.765L112.589 25.7672ZM122.214 17.9842V15.8796H120.685V26.4819H122.234V21.2999C122.234 19.4137 123.048 17.3488 125.55 17.3488C125.748 17.3488 125.947 17.3687 126.145 17.3886V15.7406C126.026 15.7208 125.728 15.7208 125.629 15.7208C124.418 15.7208 123.008 16.3363 122.214 17.9842ZM127.652 12.0874C127.652 12.7227 128.168 13.239 128.803 13.239C129.459 13.239 129.975 12.7227 129.975 12.0874C129.975 11.4322 129.459 10.916 128.803 10.916C128.168 10.916 127.652 11.4322 127.652 12.0874ZM129.598 15.8796H128.029V26.4819H129.598V15.8796ZM133.705 21.1212C133.705 18.9174 135.274 17.0709 137.537 17.0709C139.741 17.0709 140.793 18.7188 141.031 19.5328L142.461 19.0762C142.024 17.2893 140.059 15.7009 137.597 15.7009C134.599 15.7009 132.117 18.004 132.117 21.2205C132.117 24.3972 134.46 26.6606 137.517 26.6606C140.297 26.6606 142.044 24.8142 142.521 23.2258L141.071 22.7493C140.773 23.5435 139.88 25.2907 137.537 25.2907C135.135 25.2907 133.705 23.3251 133.705 21.1212ZM151.897 23.464C151.897 21.5382 150.149 20.6248 148.422 20.4064C147.33 20.2675 145.9 20.0689 145.9 18.7387C145.9 17.8254 146.754 17.051 147.906 17.051C149.593 17.051 150.169 18.2026 150.348 18.9174L151.758 18.5798C151.599 17.5672 150.705 15.7009 147.906 15.7009C146.159 15.7009 144.352 16.8723 144.352 18.8578C144.352 20.9227 146.079 21.558 147.846 21.8161C148.938 21.975 150.328 22.2728 150.328 23.5633C150.328 24.6752 149.276 25.2907 148.124 25.2907C146.476 25.2907 145.761 24.1391 145.543 23.1861L144.114 23.5236C144.312 24.7149 145.265 26.6606 148.144 26.6606C150.189 26.6606 151.897 25.4098 151.897 23.464ZM170.431 21.1609C170.431 18.4011 168.465 15.7009 165.447 15.7009C163.442 15.7009 162.191 16.8525 161.337 18.1827V15.8796H159.809V31.7037H161.357V24.2979C162.211 25.648 163.482 26.6408 165.447 26.6408C168.465 26.6408 170.431 24.02 170.431 21.1609ZM165.13 25.2708C162.886 25.2708 161.337 23.3251 161.337 21.1411C161.337 19.0166 162.946 17.0709 165.13 17.0709C167.473 17.0709 168.843 18.9968 168.843 21.2006C168.843 23.4442 167.473 25.2708 165.13 25.2708ZM177.655 26.6606C180.752 26.6606 183.155 24.2781 183.155 21.1411C183.155 18.1033 180.752 15.7009 177.695 15.7009C174.558 15.7009 172.195 18.0835 172.195 21.2205C172.195 24.2384 174.578 26.6606 177.655 26.6606ZM177.695 25.2907C175.372 25.2907 173.783 23.3648 173.783 21.1411C173.783 18.9174 175.352 17.051 177.655 17.051C179.958 17.051 181.566 18.9968 181.566 21.2205C181.566 23.4243 179.958 25.2907 177.695 25.2907ZM187.987 26.4819H189.695L192.514 17.8651H192.534L195.333 26.4819H197.061L200.634 15.8796H199.026L196.227 24.695H196.207L193.308 15.8796H191.759L188.881 24.6752H188.861L186.081 15.8796H184.433L187.987 26.4819ZM203.265 21.6573H211.842C211.862 21.4984 211.862 21.3198 211.862 21.1411C211.862 18.0438 210.134 15.7009 206.858 15.7009C203.88 15.7009 201.696 18.282 201.696 21.1609C201.696 24.2185 203.999 26.6606 207.077 26.6606C209.181 26.6606 211.087 25.5091 211.723 23.464L210.333 23.0272C209.836 24.5163 208.625 25.2907 207.057 25.2907C204.992 25.2907 203.384 23.7222 203.265 21.6573ZM210.293 20.3469H203.284C203.543 18.5798 205.012 17.051 206.858 17.051C208.883 17.051 210.095 18.421 210.293 20.3469ZM215.861 17.9842V15.8796H214.332V26.4819H215.881V21.2999C215.881 19.4137 216.695 17.3488 219.196 17.3488C219.395 17.3488 219.593 17.3687 219.792 17.3886V15.7406C219.673 15.7208 219.375 15.7208 219.276 15.7208C218.065 15.7208 216.655 16.3363 215.861 17.9842ZM222.102 21.6573H230.679C230.699 21.4984 230.699 21.3198 230.699 21.1411C230.699 18.0438 228.971 15.7009 225.695 15.7009C222.717 15.7009 220.533 18.282 220.533 21.1609C220.533 24.2185 222.836 26.6606 225.914 26.6606C228.018 26.6606 229.924 25.5091 230.56 23.464L229.17 23.0272C228.673 24.5163 227.462 25.2907 225.894 25.2907C223.829 25.2907 222.221 23.7222 222.102 21.6573ZM229.13 20.3469H222.121C222.38 18.5798 223.849 17.051 225.695 17.051C227.72 17.051 228.932 18.421 229.13 20.3469ZM232.414 21.1609C232.414 24.0597 234.34 26.6408 237.378 26.6408C239.423 26.6408 240.694 25.5686 241.508 24.2185V26.4819H243.017V10.3203H241.488V18.1033C240.634 16.8525 239.423 15.7009 237.378 15.7009C234.38 15.7009 232.414 18.4011 232.414 21.1609ZM237.696 25.2708C235.373 25.2708 233.983 23.3846 233.983 21.2006C233.983 18.9174 235.373 17.0709 237.696 17.0709C239.9 17.0709 241.508 19.0365 241.508 21.1411C241.508 23.3251 239.939 25.2708 237.696 25.2708ZM262.298 21.1609C262.298 18.4011 260.333 15.7009 257.315 15.7009C255.33 15.7009 254.099 16.8128 253.225 18.1629V10.3203H251.676V26.4819H253.205V24.2582C254.059 25.648 255.31 26.6408 257.315 26.6408C260.333 26.6408 262.298 24.02 262.298 21.1609ZM256.997 25.2708C254.754 25.2708 253.205 23.3251 253.205 21.1411C253.205 19.0166 254.813 17.0709 256.997 17.0709C259.34 17.0709 260.71 18.9968 260.71 21.2006C260.71 23.4442 259.34 25.2708 256.997 25.2708ZM268.331 25.7672L265.591 31.7037H267.259L274.526 15.8796H272.858L269.185 24.0795L265.294 15.8796H263.507L268.331 25.7672Z" fill="#131313"/>
</g>
<defs>
<linearGradient id="paint0_linear" x1="0.577883" y1="0" x2="0.577883" y2="81.5715" gradientUnits="userSpaceOnUse">
<stop stop-color="#FF6633"/>
<stop offset="1" stop-color="#FF0E83"/>
</linearGradient>
<clipPath id="clip0">
<path d="M0 0H364V82.7273H0V0Z" fill="white"/>
</clipPath>
<clipPath id="clip1">
<rect x="19.25" y="20.843" width="44.0518" height="42.2864" fill="white"/>
</clipPath>
</defs>
</svg>