<svg xmlns="http://www.w3.org/2000/svg" version="1.1" xmlns:xlink="http://www.w3.org/1999/xlink" xmlns:svgjs="http://svgjs.dev/svgjs" width="1500" height="935" viewBox="0 0 1500 935"><g transform="matrix(1,0,0,1,-0.9090909090909918,0.37859020647755415)"><svg viewBox="0 0 396 247" data-background-color="#00784a" preserveAspectRatio="xMidYMid meet" height="935" width="1500" xmlns="http://www.w3.org/2000/svg" xmlns:xlink="http://www.w3.org/1999/xlink"><g id="tight-bounds" transform="matrix(1,0,0,1,0.2400000000000091,-0.09999459999997384)"><svg viewBox="0 0 395.52 247.2" height="247.2" width="395.52"><g><svg></svg></g><g><svg viewBox="0 0 395.52 247.2" height="247.2" width="395.52"><mask id="922ac408-be51-462f-a094-11efc514149e"><rect width="395.52" height="247.2" fill="white"></rect><g transform="matrix(1,0,0,1,2.842170943040401e-14,62.66110477756435)" id="clone"><svg viewBox="0 0 395.5199999999999 121.8777904448713" height="121.8777904448713" width="395.5199999999999"><g><svg viewBox="0 0 395.5199999999999 121.8777904448713" height="121.8777904448713" width="395.5199999999999"><g><svg viewBox="0 0 598.5375756616298 184.4367850421456" height="121.8777904448713" width="395.5199999999999"><g transform="matrix(1,0,0,1,203.01757566162982,25.49017796168583)"><svg viewBox="0 0 395.52 133.45642911877394" height="133.45642911877394" width="395.52"><g id="SvgjsG1043"><svg viewBox="0 0 395.52 133.45642911877394" height="133.45642911877394" width="395.52" id="SvgjsSvg1042"><g><svg viewBox="0 0 395.52 133.45642911877394" height="133.45642911877394" width="395.52"><g transform="matrix(1,0,0,1,0,0)"><svg width="395.52" viewBox="-2.92 -37.4 157.57999999999998 53.839999999999996" height="133.45642911877394" data-palette-color="#1fdf64"><path d="M6.68-20.44L6.68-20.44Q6.68-17.6 8.36-17.32L8.36-17.32Q8.24-16.76 7.44-16.76L7.44-16.76Q5.8-16.76 5.12-18.72L5.12-18.72Q4.8-19.64 4.8-20.96 4.8-22.28 5.84-24.16L5.84-24.16Q8.24-28.52 14.64-29.8L14.64-29.8Q16.92-30.24 19.64-30.24 22.36-30.24 24.58-30.88 26.8-31.52 27.86-32.32 28.92-33.12 29.86-33.76 30.8-34.4 31.42-34.4 32.04-34.4 32.04-33.84L32.04-33.84Q32.04-32.52 29.44-31.16 26.84-29.8 22.68-29.4L22.68-29.4Q20.96-28.48 20-22.88L20-22.88Q18.92-16.44 18.2-12.36 17.48-8.28 16.5-5.38 15.52-2.48 14.28-0.26 13.04 1.96 11.02 3.3 9 4.64 6.3 4.64 3.6 4.64 1.92 2.88L1.92 2.88Q0.08 0.96 0.08-2.32L0.08-2.32Q0.08-7.8 3-10.72L3-10.72Q4.76-12.48 6.92-12.48L6.92-12.48Q7.44-12.48 7.78-12.24 8.12-12 8.24-11.52L8.24-11.52Q4.84-11.52 2.72-8L2.72-8Q1.16-5.4 1.16-2.6L1.16-2.6Q1.16 2 4.32 3L4.32 3Q5.04 3.24 5.88 3.24L5.88 3.24Q8.36 3.24 10.22 1.2 12.08-0.84 13.06-3.96 14.04-7.08 14.94-10.98 15.84-14.88 16.44-18.4 17.04-21.92 18.06-24.98 19.08-28.04 20.4-29.28L20.4-29.28 19.6-29.28Q11.4-29.28 8.16-24.68L8.16-24.68Q6.68-22.6 6.68-20.44ZM30.96-11.6Q28.84-7.76 27.66-4.8 26.48-1.84 26.48-1.3 26.48-0.76 25.92-0.76L25.92-0.76Q24.72-0.76 24.72-3.96L24.72-3.96Q24.72-10.32 26-16.74 27.28-23.16 29.04-27.02 30.8-30.88 32.32-30.88L32.32-30.88Q32.96-30.88 32.96-30.24L32.96-30.24Q30.84-25.56 29.42-19.56 28-13.56 27.04-6.76L27.04-6.76 27.32-6.76Q32.4-19.24 37.28-19.24L37.28-19.24Q39.32-19.24 39.32-17.28L39.32-17.28Q39.04-16.36 38.6-14.86 38.16-13.36 37.44-9.48 36.72-5.6 36.72-2.68L36.72-2.68Q36.72 1.56 37.96 1.56L37.96 1.56Q38.4 1.56 38.84 1.18 39.28 0.8 39.44 0.8L39.44 0.8Q40 0.8 39.4 1.68L39.4 1.68Q39.24 1.96 38.7 2.44 38.16 2.92 37.64 2.92L37.64 2.92Q36.08 2.92 35.22 0.74 34.36-1.44 34.36-4.92L34.36-4.92Q34.36-10.8 36.12-17.04L36.12-17.04Q36.2-17.64 35.64-17.56L35.64-17.56Q35.36-17.52 35.08-17.24L35.08-17.24Q33.08-15.44 30.96-11.6ZM42.91-3.4L42.91-3.4Q42.91-9.32 44.13-13.96 45.35-18.6 47.23-18.6L47.23-18.6Q48.16-18.6 48.16-17.6L48.16-17.6Q47.76-16.56 47.16-14.84 46.55-13.12 45.58-8.62 44.59-4.12 44.59-0.6L44.59-0.6Q44.59-0.04 43.99-0.04L43.99-0.04Q42.91-0.04 42.91-3.4ZM48.76-23.04L48.27-22.36Q47.44-22.36 47.44-23.96L47.44-23.96Q47.44-24.92 47.95-25.98 48.48-27.04 49.44-27.04L49.44-27.04Q50.23-27.04 50.23-26.12L50.23-26.12Q50.23-25.2 48.76-23.04L48.76-23.04ZM53.43-1.36L53.43-1.36Q53.43 1.44 55.23 1.44L55.23 1.44Q56.91 1.44 58.37-1.32 59.83-4.08 59.83-8.28L59.83-8.28Q59.83-10.32 59.09-14.04 58.35-17.76 58.35-18.9 58.35-20.04 58.43-20.4L58.43-20.4Q57.91-19.56 55.43-14.82 52.95-10.08 51.03-7.32L51.03-7.32Q50.87-7.16 50.59-7.22 50.31-7.28 50.13-7.46 49.95-7.64 49.95-7.72 49.95-7.8 49.99-7.84L49.99-7.84Q51.87-10.56 54.37-15.34 56.87-20.12 58.55-22.48 60.23-24.84 61.87-24.84L61.87-24.84Q62.71-24.84 62.71-24.12L62.71-24.12Q62.71-23.64 62.03-22.84L62.03-22.84Q59.87-20.4 59.87-17.84L59.87-17.84Q59.87-16.32 61.03-11.98 62.19-7.64 62.19-5.68L62.19-5.68Q62.19-2.16 60.23 0.3 58.27 2.76 55.79 2.76L55.79 2.76Q52.27 2.76 52.27-1.28L52.27-1.28Q52.27-4.32 54.13-7.64 55.99-10.96 57.87-12.12L57.87-12.12Q58.23-12.36 58.33-11.84 58.43-11.32 58.19-11.16L58.19-11.16Q56.07-9.96 54.51-6.04L54.51-6.04Q53.43-3.28 53.43-1.36ZM78.39 1.64L78.39 1.64Q78.39 4.6 81.51 5.2L81.51 5.2Q82.11 5.32 82.87 5.32L82.87 5.32Q87.87 5.32 90.79 2.1 93.71-1.12 93.71-6L93.71-6Q93.71-7.92 93.01-9.54 92.31-11.16 91.27-12.22 90.23-13.28 89.01-14.36 87.79-15.44 86.75-16.32 85.71-17.2 85.01-18.44 84.31-19.68 84.31-21.08L84.31-21.08Q84.31-24.76 87.61-27.86 90.91-30.96 94.71-30.96L94.71-30.96Q95.47-30.96 95.83-30.4 96.19-29.84 96.19-29.28L96.19-29.28 96.15-28.76Q95.87-28.92 94.75-28.92L94.75-28.92Q92.19-28.92 89.79-26.52 87.39-24.12 87.39-20.96L87.39-20.96Q87.39-19.68 88.09-18.46 88.79-17.24 89.83-16.32 90.87-15.4 92.07-14.26 93.27-13.12 94.31-12.02 95.35-10.92 96.05-9.34 96.75-7.76 96.75-6L96.75-6Q96.75-1.16 92.75 2.6 88.75 6.36 82.87 6.36L82.87 6.36Q77.91 6.36 76.59 3.16L76.59 3.16Q75.55 0.52 77.39-2.68 79.23-5.88 82.71-7L82.71-7Q83.99-7.4 84.99-7.4 85.99-7.4 86.37-7.06 86.75-6.72 86.87-6L86.87-6Q83.11-6 80.43-2.96L80.43-2.96Q78.39-0.68 78.39 1.64ZM96.95-20.48L96.95-20.48Q96.95-20.28 96.57-20.28 96.19-20.28 95.87-20.44 95.55-20.6 95.55-20.88L95.55-20.88Q95.55-24.96 96.47-27.44 97.39-29.92 98.91-29.92L98.91-29.92Q99.31-29.92 99.59-29.64 99.87-29.36 99.87-28.92L99.87-28.92Q98.07-27.12 97.27-23.52L97.27-23.52Q96.95-22.08 96.95-20.48ZM105.43 0.36L105.43 0.36Q100.51 0.36 100.51-6.4L100.51-6.4Q100.51-10.2 102.43-14L102.43-14Q104.87-18.8 108.23-18.8L108.23-18.8Q108.71-18.8 109.03-18.56 109.35-18.32 109.47-17.84L109.47-17.84Q106.95-17.84 105.11-13.8 103.27-9.76 103.27-5.84L103.27-5.84Q103.27-1.08 105.87-1.08L105.87-1.08Q107.35-1.08 108.95-3.34 110.55-5.6 111.61-9.28 112.67-12.96 112.67-16.68L112.67-16.68 112.67-17.16Q111.43-17.96 110.63-19.16 109.83-20.36 109.83-20.92 109.83-21.48 110.33-21.98 110.83-22.48 111.35-22.48L111.35-22.48Q112.11-22.48 112.83-21.12 113.55-19.76 113.83-18.04L113.83-18.04Q115.07-17.2 116.01-17.2 116.95-17.2 117.51-17.52L117.51-17.52Q117.51-16.96 117.11-16.52 116.71-16.08 115.87-16.08 115.03-16.08 113.95-16.48L113.95-16.48Q113.91-12.64 112.79-8.76 111.67-4.88 109.67-2.26 107.67 0.36 105.43 0.36ZM119.78-6.48L120.14-6.48Q125.3-19.24 130.18-19.24L130.18-19.24Q132.22-19.24 132.22-17.28L132.22-17.28Q131.94-16.36 131.5-14.86 131.06-13.36 130.32-9.48 129.58-5.6 129.58-2.68L129.58-2.68Q129.58 1.56 130.82 1.56L130.82 1.56Q131.3 1.56 131.74 1.18 132.18 0.8 132.34 0.8L132.34 0.8Q132.9 0.8 132.34 1.68L132.34 1.68Q132.14 1.96 131.6 2.44 131.06 2.92 130.5 2.92L130.5 2.92Q128.98 2.92 128.12 0.74 127.26-1.44 127.26-4.92L127.26-4.92Q127.26-10.44 128.98-17.04L128.98-17.04Q129.14-17.56 128.66-17.56L128.66-17.56Q128.34-17.56 127.94-17.24L127.94-17.24Q126.02-15.56 123.9-11.68 121.78-7.8 120.58-4.74 119.38-1.68 119.38-1.18 119.38-0.68 118.82-0.68L118.82-0.68Q117.54-0.68 117.54-3.84L117.54-3.84Q117.54-9.8 118.76-14.64 119.98-19.48 121.7-19.48L121.7-19.48Q122.42-19.48 122.42-18.6L122.42-18.6Q120.58-12.64 119.78-6.48L119.78-6.48ZM138.34 0L138.34 0Q135.06 0 135.06-5.16L135.06-5.16Q135.06-8.24 136.58-11.92L136.58-11.92Q138.7-17.08 142.14-18.96L142.14-18.96Q143.62-19.76 144.9-19.76 146.18-19.76 146.92-19.2 147.66-18.64 147.86-18.08L147.86-18.08 148.1-17.56Q147.98-16.88 147.42-16.88L147.42-16.88Q146.78-16.88 146.68-17.18 146.58-17.48 146.46-17.7 146.34-17.92 145.9-18.3 145.46-18.68 144.9-18.68L144.9-18.68Q142.3-18.68 140.18-14L140.18-14Q137.78-8.6 137.78-3.84L137.78-3.84Q137.78-1.44 138.74-1.44L138.74-1.44Q140.06-1.44 143-6.06 145.94-10.68 148.3-15.52L148.3-15.52Q149.5-17.96 150.82-17.96L150.82-17.96Q151.66-17.96 151.66-17L151.66-17Q151.5-16.72 151.18-16.08 150.86-15.44 150.02-12.42 149.18-9.4 148.5-5.5 147.82-1.6 147.34 0.6L147.34 0.6Q150.38 1.12 150.86 3.24L150.86 3.24Q150.94 3.6 150.94 4.22 150.94 4.84 150.46 5.3 149.98 5.76 149.62 5.76L149.62 5.76Q149.7 5.48 149.66 4.78 149.62 4.08 149.4 3.6 149.18 3.12 148.58 2.6 147.98 2.08 147.02 1.84L147.02 1.84Q145.78 6.72 143.46 9.88L143.46 9.88Q140.82 13.44 136.34 13.44L136.34 13.44Q133.06 13.44 131.98 11.12L131.98 11.12Q131.94 11 131.94 10.92L131.94 10.92Q131.94 10.68 132.38 10.58 132.82 10.48 132.98 10.88L132.98 10.88Q133.7 12.52 136.34 12.52L136.34 12.52Q139.94 12.52 141.94 9.12L141.94 9.12Q143.74 6.12 144.7 1.64L144.7 1.64Q137.5 1.8 133.58 7.16L133.58 7.16Q133.34 7.52 132.82 7.28L132.82 7.28Q132.54 7.12 132.66 6.88L132.66 6.88Q134.38 4.28 137.46 2.46 140.54 0.64 144.94 0.48L144.94 0.48Q145.38-1.52 145.72-3.74 146.06-5.96 146.3-7.24 146.54-8.52 146.62-9.08L146.62-9.08 146.18-9.08Q140.9 0 138.34 0Z" opacity="1" transform="matrix(1,0,0,1,0,0)" fill="black" class="wordmark-text-0" id="SvgjsPath1041" stroke-width="5" stroke="black" stroke-linejoin="round"></path></svg></g></svg></g></svg></g></svg></g><g><svg viewBox="0 0 185.38585940771412 184.4367850421456" height="184.4367850421456" width="185.38585940771412"><g><svg xmlns="http://www.w3.org/2000/svg" xmlns:xlink="http://www.w3.org/1999/xlink" version="1.1" x="0" y="0" viewBox="16.4 16.700000000000003 58.6 58.3" enable-background="new 0 0 100 100" xml:space="preserve" height="184.4367850421456" width="185.38585940771412" class="icon-icon-0" data-fill-palette-color="accent" id="SvgjsSvg1040"><path d="M44.6 25v12H66v2H44.3c-0.9 2.7-3.7 4.6-7 4.6-4 0-7.3-2.9-7.3-6.5s3.3-6.5 7.3-6.5c0.4 0 0.9 0 1.3 0.1v-3L29 30.1V75h46V25H44.6zM66 63H38v-2h28V63zM66 55H38v-2h28V55zM66 47H38v-2h28V47zM40.6 25.1L27 28.5V41c0 2.5-2.4 4.5-5.3 4.5-2.9 0-5.3-2-5.3-4.5s2.4-4.5 5.3-4.5c1.2 0 2.4 0.4 3.3 1V21.1l17.6-4.4v20.4c0 2.5-2.4 4.5-5.3 4.5-2.9 0-5.3-2-5.3-4.5s2.4-4.5 5.3-4.5c1.2 0 2.4 0.4 3.3 1V25.1z" fill="black" stroke-width="5" stroke="black" stroke-linejoin="round"></path></svg></g></svg></g></svg></g></svg></g></svg></g></mask><g mask="url(#922ac408-be51-462f-a094-11efc514149e)"><g><path transform="translate(0.50338,208.62807) scale(6.06477,6.06477)" d="M6.68-20.44v0c0 1.893 0.56 2.933 1.68 3.12v0c-0.08 0.373-0.387 0.56-0.92 0.56v0c-1.093 0-1.867-0.653-2.32-1.96v0c-0.213-0.613-0.32-1.36-0.32-2.24 0-0.88 0.347-1.947 1.04-3.2v0c1.6-2.907 4.533-4.787 8.8-5.64v0c1.52-0.293 3.187-0.44 5-0.44 1.813 0 3.46-0.213 4.94-0.64 1.48-0.427 2.573-0.907 3.28-1.44 0.707-0.533 1.373-1.013 2-1.44 0.627-0.427 1.147-0.64 1.56-0.64 0.413 0 0.62 0.187 0.62 0.56v0c0 0.88-0.867 1.773-2.6 2.68-1.733 0.907-3.987 1.493-6.76 1.76v0c-1.147 0.613-2.04 2.787-2.68 6.52v0c-0.72 4.293-1.32 7.8-1.8 10.52-0.48 2.72-1.047 5.047-1.7 6.98-0.653 1.933-1.393 3.64-2.22 5.12-0.827 1.48-1.913 2.667-3.26 3.56-1.347 0.893-2.92 1.34-4.72 1.34-1.8 0-3.26-0.587-4.38-1.76v0c-1.227-1.28-1.84-3.013-1.84-5.2v0c0-3.653 0.973-6.453 2.92-8.4v0c1.173-1.173 2.48-1.76 3.92-1.76v0c0.347 0 0.633 0.08 0.86 0.24 0.227 0.16 0.38 0.4 0.46 0.72v0c-2.267 0-4.107 1.173-5.52 3.52v0c-1.04 1.733-1.56 3.533-1.56 5.4v0c0 3.067 1.053 4.933 3.16 5.6v0c0.48 0.16 1 0.24 1.56 0.24v0c1.653 0 3.1-0.68 4.34-2.04 1.24-1.36 2.187-3.08 2.84-5.16 0.653-2.08 1.28-4.42 1.88-7.02 0.6-2.6 1.1-5.073 1.5-7.42 0.4-2.347 0.94-4.54 1.62-6.58 0.68-2.04 1.46-3.473 2.34-4.3v0h-0.8c-5.467 0-9.28 1.533-11.44 4.6v0c-0.987 1.387-1.48 2.8-1.48 4.24zM43.49 1.64v0c0 1.973 1.04 3.16 3.12 3.56v0c0.4 0.08 0.853 0.12 1.36 0.12v0c3.333 0 5.973-1.073 7.92-3.22 1.947-2.147 2.92-4.847 2.92-8.1v0c0-1.28-0.233-2.46-0.7-3.54-0.467-1.08-1.047-1.973-1.74-2.68-0.693-0.707-1.447-1.42-2.26-2.14-0.813-0.72-1.567-1.373-2.26-1.96-0.693-0.587-1.273-1.293-1.74-2.12-0.467-0.827-0.7-1.707-0.7-2.64v0c0-2.453 1.1-4.713 3.3-6.78 2.2-2.067 4.567-3.1 7.1-3.1v0c0.507 0 0.88 0.187 1.12 0.56 0.24 0.373 0.36 0.747 0.36 1.12v0l-0.04 0.52c-0.187-0.107-0.653-0.16-1.4-0.16v0c-1.707 0-3.36 0.8-4.96 2.4-1.6 1.6-2.4 3.453-2.4 5.56v0c0 0.853 0.233 1.687 0.7 2.5 0.467 0.813 1.047 1.527 1.74 2.14 0.693 0.613 1.44 1.3 2.24 2.06 0.8 0.76 1.547 1.507 2.24 2.24 0.693 0.733 1.273 1.627 1.74 2.68 0.467 1.053 0.7 2.167 0.7 3.34v0c0 3.227-1.333 6.093-4 8.6-2.667 2.507-5.96 3.76-9.88 3.76v0c-3.307 0-5.4-1.067-6.28-3.2v0c-0.693-1.76-0.427-3.707 0.8-5.84 1.227-2.133 3-3.573 5.32-4.32v0c0.853-0.267 1.613-0.4 2.28-0.4 0.667 0 1.127 0.113 1.38 0.34 0.253 0.227 0.42 0.58 0.5 1.06v0c-2.507 0-4.653 1.013-6.44 3.04v0c-1.36 1.52-2.04 3.053-2.04 4.6zM62.05-20.48v0c0 0.133-0.127 0.2-0.38 0.2-0.253 0-0.487-0.053-0.7-0.16-0.213-0.107-0.32-0.253-0.32-0.44v0c0-2.72 0.307-4.907 0.92-6.56 0.613-1.653 1.427-2.48 2.44-2.48v0c0.267 0 0.493 0.093 0.68 0.28 0.187 0.187 0.28 0.427 0.28 0.72v0c-1.2 1.2-2.067 3-2.6 5.4v0c-0.213 0.96-0.32 1.973-0.32 3.04z" fill="#1fdf64" fill-rule="nonzero" stroke="none" stroke-width="1" stroke-linecap="butt" stroke-linejoin="miter" stroke-miterlimit="10" stroke-dasharray="" stroke-dashoffset="0" font-family="none" font-weight="none" font-size="none" text-anchor="none" style="mix-blend-mode: normal" data-fill-palette-color="tertiary"></path></g></g><g transform="matrix(1,0,0,1,2.842170943040401e-14,62.66110477756435)"><svg viewBox="0 0 395.5199999999999 121.8777904448713" height="121.8777904448713" width="395.5199999999999"><g><svg viewBox="0 0 395.5199999999999 121.8777904448713" height="121.8777904448713" width="395.5199999999999"><g><svg viewBox="0 0 598.5375756616298 184.4367850421456" height="121.8777904448713" width="395.5199999999999"><g transform="matrix(1,0,0,1,203.01757566162982,25.49017796168583)"><svg viewBox="0 0 395.52 133.45642911877394" height="133.45642911877394" width="395.52"><g id="textblocktransform"><svg viewBox="0 0 395.52 133.45642911877394" height="133.45642911877394" width="395.52" id="textblock"><g><svg viewBox="0 0 395.52 133.45642911877394" height="133.45642911877394" width="395.52"><g transform="matrix(1,0,0,1,0,0)"><svg width="395.52" viewBox="-2.92 -37.4 157.57999999999998 53.839999999999996" height="133.45642911877394" data-palette-color="#1fdf64"><path d="M6.68-20.44L6.68-20.44Q6.68-17.6 8.36-17.32L8.36-17.32Q8.24-16.76 7.44-16.76L7.44-16.76Q5.8-16.76 5.12-18.72L5.12-18.72Q4.8-19.64 4.8-20.96 4.8-22.28 5.84-24.16L5.84-24.16Q8.24-28.52 14.64-29.8L14.64-29.8Q16.92-30.24 19.64-30.24 22.36-30.24 24.58-30.88 26.8-31.52 27.86-32.32 28.92-33.12 29.86-33.76 30.8-34.4 31.42-34.4 32.04-34.4 32.04-33.84L32.04-33.84Q32.04-32.52 29.44-31.16 26.84-29.8 22.68-29.4L22.68-29.4Q20.96-28.48 20-22.88L20-22.88Q18.92-16.44 18.2-12.36 17.48-8.28 16.5-5.38 15.52-2.48 14.28-0.26 13.04 1.96 11.02 3.3 9 4.64 6.3 4.64 3.6 4.64 1.92 2.88L1.92 2.88Q0.08 0.96 0.08-2.32L0.08-2.32Q0.08-7.8 3-10.72L3-10.72Q4.76-12.48 6.92-12.48L6.92-12.48Q7.44-12.48 7.78-12.24 8.12-12 8.24-11.52L8.24-11.52Q4.84-11.52 2.72-8L2.72-8Q1.16-5.4 1.16-2.6L1.16-2.6Q1.16 2 4.32 3L4.32 3Q5.04 3.24 5.88 3.24L5.88 3.24Q8.36 3.24 10.22 1.2 12.08-0.84 13.06-3.96 14.04-7.08 14.94-10.98 15.84-14.88 16.44-18.4 17.04-21.92 18.06-24.98 19.08-28.04 20.4-29.28L20.4-29.28 19.6-29.28Q11.4-29.28 8.16-24.68L8.16-24.68Q6.68-22.6 6.68-20.44ZM30.96-11.6Q28.84-7.76 27.66-4.8 26.48-1.84 26.48-1.3 26.48-0.76 25.92-0.76L25.92-0.76Q24.72-0.76 24.72-3.96L24.72-3.96Q24.72-10.32 26-16.74 27.28-23.16 29.04-27.02 30.8-30.88 32.32-30.88L32.32-30.88Q32.96-30.88 32.96-30.24L32.96-30.24Q30.84-25.56 29.42-19.56 28-13.56 27.04-6.76L27.04-6.76 27.32-6.76Q32.4-19.24 37.28-19.24L37.28-19.24Q39.32-19.24 39.32-17.28L39.32-17.28Q39.04-16.36 38.6-14.86 38.16-13.36 37.44-9.48 36.72-5.6 36.72-2.68L36.72-2.68Q36.72 1.56 37.96 1.56L37.96 1.56Q38.4 1.56 38.84 1.18 39.28 0.8 39.44 0.8L39.44 0.8Q40 0.8 39.4 1.68L39.4 1.68Q39.24 1.96 38.7 2.44 38.16 2.92 37.64 2.92L37.64 2.92Q36.08 2.92 35.22 0.74 34.36-1.44 34.36-4.92L34.36-4.92Q34.36-10.8 36.12-17.04L36.12-17.04Q36.2-17.64 35.64-17.56L35.64-17.56Q35.36-17.52 35.08-17.24L35.08-17.24Q33.08-15.44 30.96-11.6ZM42.91-3.4L42.91-3.4Q42.91-9.32 44.13-13.96 45.35-18.6 47.23-18.6L47.23-18.6Q48.16-18.6 48.16-17.6L48.16-17.6Q47.76-16.56 47.16-14.84 46.55-13.12 45.58-8.62 44.59-4.12 44.59-0.6L44.59-0.6Q44.59-0.04 43.99-0.04L43.99-0.04Q42.91-0.04 42.91-3.4ZM48.76-23.04L48.27-22.36Q47.44-22.36 47.44-23.96L47.44-23.96Q47.44-24.92 47.95-25.98 48.48-27.04 49.44-27.04L49.44-27.04Q50.23-27.04 50.23-26.12L50.23-26.12Q50.23-25.2 48.76-23.04L48.76-23.04ZM53.43-1.36L53.43-1.36Q53.43 1.44 55.23 1.44L55.23 1.44Q56.91 1.44 58.37-1.32 59.83-4.08 59.83-8.28L59.83-8.28Q59.83-10.32 59.09-14.04 58.35-17.76 58.35-18.9 58.35-20.04 58.43-20.4L58.43-20.4Q57.91-19.56 55.43-14.82 52.95-10.08 51.03-7.32L51.03-7.32Q50.87-7.16 50.59-7.22 50.31-7.28 50.13-7.46 49.95-7.64 49.95-7.72 49.95-7.8 49.99-7.84L49.99-7.84Q51.87-10.56 54.37-15.34 56.87-20.12 58.55-22.48 60.23-24.84 61.87-24.84L61.87-24.84Q62.71-24.84 62.71-24.12L62.71-24.12Q62.71-23.64 62.03-22.84L62.03-22.84Q59.87-20.4 59.87-17.84L59.87-17.84Q59.87-16.32 61.03-11.98 62.19-7.64 62.19-5.68L62.19-5.68Q62.19-2.16 60.23 0.3 58.27 2.76 55.79 2.76L55.79 2.76Q52.27 2.76 52.27-1.28L52.27-1.28Q52.27-4.32 54.13-7.64 55.99-10.96 57.87-12.12L57.87-12.12Q58.23-12.36 58.33-11.84 58.43-11.32 58.19-11.16L58.19-11.16Q56.07-9.96 54.51-6.04L54.51-6.04Q53.43-3.28 53.43-1.36ZM78.39 1.64L78.39 1.64Q78.39 4.6 81.51 5.2L81.51 5.2Q82.11 5.32 82.87 5.32L82.87 5.32Q87.87 5.32 90.79 2.1 93.71-1.12 93.71-6L93.71-6Q93.71-7.92 93.01-9.54 92.31-11.16 91.27-12.22 90.23-13.28 89.01-14.36 87.79-15.44 86.75-16.32 85.71-17.2 85.01-18.44 84.31-19.68 84.31-21.08L84.31-21.08Q84.31-24.76 87.61-27.86 90.91-30.96 94.71-30.96L94.71-30.96Q95.47-30.96 95.83-30.4 96.19-29.84 96.19-29.28L96.19-29.28 96.15-28.76Q95.87-28.92 94.75-28.92L94.75-28.92Q92.19-28.92 89.79-26.52 87.39-24.12 87.39-20.96L87.39-20.96Q87.39-19.68 88.09-18.46 88.79-17.24 89.83-16.32 90.87-15.4 92.07-14.26 93.27-13.12 94.31-12.02 95.35-10.92 96.05-9.34 96.75-7.76 96.75-6L96.75-6Q96.75-1.16 92.75 2.6 88.75 6.36 82.87 6.36L82.87 6.36Q77.91 6.36 76.59 3.16L76.59 3.16Q75.55 0.52 77.39-2.68 79.23-5.88 82.71-7L82.71-7Q83.99-7.4 84.99-7.4 85.99-7.4 86.37-7.06 86.75-6.72 86.87-6L86.87-6Q83.11-6 80.43-2.96L80.43-2.96Q78.39-0.68 78.39 1.64ZM96.95-20.48L96.95-20.48Q96.95-20.28 96.57-20.28 96.19-20.28 95.87-20.44 95.55-20.6 95.55-20.88L95.55-20.88Q95.55-24.96 96.47-27.44 97.39-29.92 98.91-29.92L98.91-29.92Q99.31-29.92 99.59-29.64 99.87-29.36 99.87-28.92L99.87-28.92Q98.07-27.12 97.27-23.52L97.27-23.52Q96.95-22.08 96.95-20.48ZM105.43 0.36L105.43 0.36Q100.51 0.36 100.51-6.4L100.51-6.4Q100.51-10.2 102.43-14L102.43-14Q104.87-18.8 108.23-18.8L108.23-18.8Q108.71-18.8 109.03-18.56 109.35-18.32 109.47-17.84L109.47-17.84Q106.95-17.84 105.11-13.8 103.27-9.76 103.27-5.84L103.27-5.84Q103.27-1.08 105.87-1.08L105.87-1.08Q107.35-1.08 108.95-3.34 110.55-5.6 111.61-9.28 112.67-12.96 112.67-16.68L112.67-16.68 112.67-17.16Q111.43-17.96 110.63-19.16 109.83-20.36 109.83-20.92 109.83-21.48 110.33-21.98 110.83-22.48 111.35-22.48L111.35-22.48Q112.11-22.48 112.83-21.12 113.55-19.76 113.83-18.04L113.83-18.04Q115.07-17.2 116.01-17.2 116.95-17.2 117.51-17.52L117.51-17.52Q117.51-16.96 117.11-16.52 116.71-16.08 115.87-16.08 115.03-16.08 113.95-16.48L113.95-16.48Q113.91-12.64 112.79-8.76 111.67-4.88 109.67-2.26 107.67 0.36 105.43 0.36ZM119.78-6.48L120.14-6.48Q125.3-19.24 130.18-19.24L130.18-19.24Q132.22-19.24 132.22-17.28L132.22-17.28Q131.94-16.36 131.5-14.86 131.06-13.36 130.32-9.48 129.58-5.6 129.58-2.68L129.58-2.68Q129.58 1.56 130.82 1.56L130.82 1.56Q131.3 1.56 131.74 1.18 132.18 0.8 132.34 0.8L132.34 0.8Q132.9 0.8 132.34 1.68L132.34 1.68Q132.14 1.96 131.6 2.44 131.06 2.92 130.5 2.92L130.5 2.92Q128.98 2.92 128.12 0.74 127.26-1.44 127.26-4.92L127.26-4.92Q127.26-10.44 128.98-17.04L128.98-17.04Q129.14-17.56 128.66-17.56L128.66-17.56Q128.34-17.56 127.94-17.24L127.94-17.24Q126.02-15.56 123.9-11.68 121.78-7.8 120.58-4.74 119.38-1.68 119.38-1.18 119.38-0.68 118.82-0.68L118.82-0.68Q117.54-0.68 117.54-3.84L117.54-3.84Q117.54-9.8 118.76-14.64 119.98-19.48 121.7-19.48L121.7-19.48Q122.42-19.48 122.42-18.6L122.42-18.6Q120.58-12.64 119.78-6.48L119.78-6.48ZM138.34 0L138.34 0Q135.06 0 135.06-5.16L135.06-5.16Q135.06-8.24 136.58-11.92L136.58-11.92Q138.7-17.08 142.14-18.96L142.14-18.96Q143.62-19.76 144.9-19.76 146.18-19.76 146.92-19.2 147.66-18.64 147.86-18.08L147.86-18.08 148.1-17.56Q147.98-16.88 147.42-16.88L147.42-16.88Q146.78-16.88 146.68-17.18 146.58-17.48 146.46-17.7 146.34-17.92 145.9-18.3 145.46-18.68 144.9-18.68L144.9-18.68Q142.3-18.68 140.18-14L140.18-14Q137.78-8.6 137.78-3.84L137.78-3.84Q137.78-1.44 138.74-1.44L138.74-1.44Q140.06-1.44 143-6.06 145.94-10.68 148.3-15.52L148.3-15.52Q149.5-17.96 150.82-17.96L150.82-17.96Q151.66-17.96 151.66-17L151.66-17Q151.5-16.72 151.18-16.08 150.86-15.44 150.02-12.42 149.18-9.4 148.5-5.5 147.82-1.6 147.34 0.6L147.34 0.6Q150.38 1.12 150.86 3.24L150.86 3.24Q150.94 3.6 150.94 4.22 150.94 4.84 150.46 5.3 149.98 5.76 149.62 5.76L149.62 5.76Q149.7 5.48 149.66 4.78 149.62 4.08 149.4 3.6 149.18 3.12 148.58 2.6 147.98 2.08 147.02 1.84L147.02 1.84Q145.78 6.72 143.46 9.88L143.46 9.88Q140.82 13.44 136.34 13.44L136.34 13.44Q133.06 13.44 131.98 11.12L131.98 11.12Q131.94 11 131.94 10.92L131.94 10.92Q131.94 10.68 132.38 10.58 132.82 10.48 132.98 10.88L132.98 10.88Q133.7 12.52 136.34 12.52L136.34 12.52Q139.94 12.52 141.94 9.12L141.94 9.12Q143.74 6.12 144.7 1.64L144.7 1.64Q137.5 1.8 133.58 7.16L133.58 7.16Q133.34 7.52 132.82 7.28L132.82 7.28Q132.54 7.12 132.66 6.88L132.66 6.88Q134.38 4.28 137.46 2.46 140.54 0.64 144.94 0.48L144.94 0.48Q145.38-1.52 145.72-3.74 146.06-5.96 146.3-7.24 146.54-8.52 146.62-9.08L146.62-9.08 146.18-9.08Q140.9 0 138.34 0Z" opacity="1" transform="matrix(1,0,0,1,0,0)" fill="#1fdf64" class="wordmark-text-0" data-fill-palette-color="primary" id="text-0"></path></svg></g></svg></g></svg></g></svg></g><g><svg viewBox="0 0 185.38585940771412 184.4367850421456" height="184.4367850421456" width="185.38585940771412"><g><svg xmlns="http://www.w3.org/2000/svg" xmlns:xlink="http://www.w3.org/1999/xlink" version="1.1" x="0" y="0" viewBox="16.4 16.700000000000003 58.6 58.3" enable-background="new 0 0 100 100" xml:space="preserve" height="184.4367850421456" width="185.38585940771412" class="icon-icon-0" data-fill-palette-color="accent" id="icon-0"><path d="M44.6 25v12H66v2H44.3c-0.9 2.7-3.7 4.6-7 4.6-4 0-7.3-2.9-7.3-6.5s3.3-6.5 7.3-6.5c0.4 0 0.9 0 1.3 0.1v-3L29 30.1V75h46V25H44.6zM66 63H38v-2h28V63zM66 55H38v-2h28V55zM66 47H38v-2h28V47zM40.6 25.1L27 28.5V41c0 2.5-2.4 4.5-5.3 4.5-2.9 0-5.3-2-5.3-4.5s2.4-4.5 5.3-4.5c1.2 0 2.4 0.4 3.3 1V21.1l17.6-4.4v20.4c0 2.5-2.4 4.5-5.3 4.5-2.9 0-5.3-2-5.3-4.5s2.4-4.5 5.3-4.5c1.2 0 2.4 0.4 3.3 1V25.1z" fill="#1fdf64" data-fill-palette-color="accent"></path></svg></g></svg></g></svg></g></svg></g></svg></g></svg></g><defs></defs></svg><rect width="395.52" height="247.2" fill="none" stroke="none" visibility="hidden"></rect></g></svg></g></svg>